<mxfile host="Electron" agent="Mozilla/5.0 (Windows NT 10.0; Win64; x64) AppleWebKit/537.36 (KHTML, like Gecko) draw.io/28.0.6 Chrome/138.0.7204.100 Electron/37.2.3 Safari/537.36" version="28.0.6">
  <diagram name="Page-1" id="hZhfcGKHblZK9MRAJfuY">
    <mxGraphModel dx="786" dy="564" grid="1" gridSize="10" guides="1" tooltips="1" connect="1" arrows="1" fold="1" page="1" pageScale="1" pageWidth="827" pageHeight="1169" math="0" shadow="0">
      <root>
        <mxCell id="0" />
        <mxCell id="1" parent="0" />
        <mxCell id="_TdoKLdaZGUyP6bLBIqD-1" value="High Level Architecture" style="text;strokeColor=none;align=center;fillColor=none;html=1;verticalAlign=middle;whiteSpace=wrap;rounded=0;fontSize=31;" parent="1" vertex="1">
          <mxGeometry x="80" y="40" width="200" height="30" as="geometry" />
        </mxCell>
        <mxCell id="_TdoKLdaZGUyP6bLBIqD-2" value="" style="rounded=0;whiteSpace=wrap;html=1;fillColor=none;dashed=1;" parent="1" vertex="1">
          <mxGeometry x="110" y="152.32" width="160" height="457.68" as="geometry" />
        </mxCell>
        <mxCell id="_TdoKLdaZGUyP6bLBIqD-3" value="Sources" style="rounded=0;whiteSpace=wrap;html=1;strokeColor=none;fontSize=20;" parent="1" vertex="1">
          <mxGeometry x="145" y="140" width="70" height="30" as="geometry" />
        </mxCell>
        <mxCell id="_TdoKLdaZGUyP6bLBIqD-4" style="edgeStyle=orthogonalEdgeStyle;rounded=0;orthogonalLoop=1;jettySize=auto;html=1;exitX=0.5;exitY=1;exitDx=0;exitDy=0;" parent="1" source="_TdoKLdaZGUyP6bLBIqD-2" target="_TdoKLdaZGUyP6bLBIqD-2" edge="1">
          <mxGeometry relative="1" as="geometry" />
        </mxCell>
        <mxCell id="_TdoKLdaZGUyP6bLBIqD-5" style="edgeStyle=orthogonalEdgeStyle;rounded=0;orthogonalLoop=1;jettySize=auto;html=1;exitX=0.5;exitY=1;exitDx=0;exitDy=0;" parent="1" source="_TdoKLdaZGUyP6bLBIqD-2" target="_TdoKLdaZGUyP6bLBIqD-2" edge="1">
          <mxGeometry relative="1" as="geometry" />
        </mxCell>
        <mxCell id="_TdoKLdaZGUyP6bLBIqD-7" value="" style="rounded=0;whiteSpace=wrap;html=1;fillColor=none;dashed=1;" parent="1" vertex="1">
          <mxGeometry x="290" y="140" width="500" height="460" as="geometry" />
        </mxCell>
        <mxCell id="_TdoKLdaZGUyP6bLBIqD-8" value="Data Warehouse" style="rounded=0;whiteSpace=wrap;html=1;strokeColor=none;fontSize=20;" parent="1" vertex="1">
          <mxGeometry x="500" y="120" width="120" height="30" as="geometry" />
        </mxCell>
        <mxCell id="_TdoKLdaZGUyP6bLBIqD-9" value="" style="rounded=0;whiteSpace=wrap;html=1;fillColor=none;dashed=1;" parent="1" vertex="1">
          <mxGeometry x="827" y="140" width="160" height="460" as="geometry" />
        </mxCell>
        <mxCell id="_TdoKLdaZGUyP6bLBIqD-10" value="Consume" style="rounded=0;whiteSpace=wrap;html=1;strokeColor=none;fontSize=20;" parent="1" vertex="1">
          <mxGeometry x="847" y="108.63999999999999" width="120" height="30" as="geometry" />
        </mxCell>
        <mxCell id="_TdoKLdaZGUyP6bLBIqD-11" value="Bronze Layer" style="rounded=0;whiteSpace=wrap;html=1;strokeColor=#BD7000;fontSize=13;fillColor=#f0a30a;fontColor=#000000;" parent="1" vertex="1">
          <mxGeometry x="360" y="158.64" width="100" height="30" as="geometry" />
        </mxCell>
        <mxCell id="_TdoKLdaZGUyP6bLBIqD-12" value="" style="rounded=0;whiteSpace=wrap;html=1;strokeColor=#BD7000;fontSize=13;fillColor=none;fontColor=#000000;" parent="1" vertex="1">
          <mxGeometry x="320" y="198.64" width="150" height="381.36" as="geometry" />
        </mxCell>
        <mxCell id="_TdoKLdaZGUyP6bLBIqD-13" value="Silver Layer" style="rounded=0;whiteSpace=wrap;html=1;strokeColor=#314354;fontSize=13;fillColor=#647687;fontColor=#ffffff;" parent="1" vertex="1">
          <mxGeometry x="490" y="158.64" width="100" height="30" as="geometry" />
        </mxCell>
        <mxCell id="_TdoKLdaZGUyP6bLBIqD-14" value="" style="rounded=0;whiteSpace=wrap;html=1;strokeColor=#314354;fontSize=13;fillColor=none;fontColor=#ffffff;" parent="1" vertex="1">
          <mxGeometry x="490" y="198.64" width="140" height="391.36" as="geometry" />
        </mxCell>
        <mxCell id="_TdoKLdaZGUyP6bLBIqD-15" value="Gold Layer" style="rounded=0;whiteSpace=wrap;html=1;strokeColor=#B09500;fontSize=13;fillColor=#e3c800;fontColor=#000000;" parent="1" vertex="1">
          <mxGeometry x="610" y="158.64" width="100" height="30" as="geometry" />
        </mxCell>
        <mxCell id="_TdoKLdaZGUyP6bLBIqD-16" value="" style="rounded=0;whiteSpace=wrap;html=1;strokeColor=#B09500;fontSize=13;fillColor=none;fontColor=#000000;" parent="1" vertex="1">
          <mxGeometry x="640" y="200.48" width="140" height="389.52" as="geometry" />
        </mxCell>
        <mxCell id="_TdoKLdaZGUyP6bLBIqD-18" value="&lt;b&gt;CRM&lt;/b&gt;" style="image;aspect=fixed;html=1;points=[];align=center;fontSize=12;image=img/lib/azure2/general/Folder_Blank.svg;" parent="1" vertex="1">
          <mxGeometry x="160" y="231.36" width="55" height="44.64" as="geometry" />
        </mxCell>
        <mxCell id="_TdoKLdaZGUyP6bLBIqD-19" value="" style="verticalLabelPosition=bottom;html=1;verticalAlign=top;align=center;strokeColor=none;fillColor=#00BEF2;shape=mxgraph.azure.cloud_services_configuration_file;pointerEvents=1;" parent="1" vertex="1">
          <mxGeometry x="191" y="250" width="24" height="30" as="geometry" />
        </mxCell>
        <mxCell id="_TdoKLdaZGUyP6bLBIqD-20" value="&lt;b&gt;ERP&lt;/b&gt;" style="image;aspect=fixed;html=1;points=[];align=center;fontSize=12;image=img/lib/azure2/general/Folder_Blank.svg;" parent="1" vertex="1">
          <mxGeometry x="160" y="320" width="55" height="44.64" as="geometry" />
        </mxCell>
        <mxCell id="_TdoKLdaZGUyP6bLBIqD-21" value="" style="verticalLabelPosition=bottom;html=1;verticalAlign=top;align=center;strokeColor=none;fillColor=#00BEF2;shape=mxgraph.azure.cloud_services_configuration_file;pointerEvents=1;" parent="1" vertex="1">
          <mxGeometry x="191" y="338.64" width="24" height="30" as="geometry" />
        </mxCell>
        <mxCell id="_TdoKLdaZGUyP6bLBIqD-25" value="&lt;b&gt;Object Type&lt;/b&gt; : CSV Files&lt;div&gt;&lt;b&gt;Interface&lt;/b&gt;: Files in Folder&lt;/div&gt;" style="text;strokeColor=none;align=center;fillColor=none;html=1;verticalAlign=middle;whiteSpace=wrap;rounded=0;" parent="1" vertex="1">
          <mxGeometry x="127.5" y="440" width="120" height="90" as="geometry" />
        </mxCell>
        <mxCell id="_TdoKLdaZGUyP6bLBIqD-27" value="" style="endArrow=none;html=1;rounded=0;" parent="1" edge="1">
          <mxGeometry width="50" height="50" relative="1" as="geometry">
            <mxPoint x="245" y="420" as="sourcePoint" />
            <mxPoint x="134.99808973487427" y="420" as="targetPoint" />
          </mxGeometry>
        </mxCell>
        <mxCell id="_TdoKLdaZGUyP6bLBIqD-28" value="" style="shape=datastore;whiteSpace=wrap;html=1;fillColor=#f0a30a;fontColor=#000000;strokeColor=#BD7000;" parent="1" vertex="1">
          <mxGeometry x="365" y="220" width="60" height="60" as="geometry" />
        </mxCell>
        <mxCell id="_TdoKLdaZGUyP6bLBIqD-29" value="" style="shape=datastore;whiteSpace=wrap;html=1;fillColor=#647687;fontColor=#ffffff;strokeColor=#314354;" parent="1" vertex="1">
          <mxGeometry x="525" y="219.99999999999997" width="60" height="60" as="geometry" />
        </mxCell>
        <mxCell id="_TdoKLdaZGUyP6bLBIqD-30" value="" style="shape=datastore;whiteSpace=wrap;html=1;fillColor=#e3c800;fontColor=#000000;strokeColor=#B09500;" parent="1" vertex="1">
          <mxGeometry x="670" y="220" width="60" height="60" as="geometry" />
        </mxCell>
        <mxCell id="_TdoKLdaZGUyP6bLBIqD-31" value="" style="shape=flexArrow;endArrow=classic;html=1;rounded=0;" parent="1" edge="1">
          <mxGeometry width="50" height="50" relative="1" as="geometry">
            <mxPoint x="770" y="353.35" as="sourcePoint" />
            <mxPoint x="845" y="353.35" as="targetPoint" />
          </mxGeometry>
        </mxCell>
        <mxCell id="_TdoKLdaZGUyP6bLBIqD-33" value="" style="shape=flexArrow;endArrow=classic;html=1;rounded=0;" parent="1" edge="1">
          <mxGeometry width="50" height="50" relative="1" as="geometry">
            <mxPoint x="240" y="341.82" as="sourcePoint" />
            <mxPoint x="315" y="341.82" as="targetPoint" />
          </mxGeometry>
        </mxCell>
        <mxCell id="_TdoKLdaZGUyP6bLBIqD-34" value="" style="shape=flexArrow;endArrow=classic;html=1;rounded=0;" parent="1" edge="1">
          <mxGeometry width="50" height="50" relative="1" as="geometry">
            <mxPoint x="450" y="353.14" as="sourcePoint" />
            <mxPoint x="525" y="353.14" as="targetPoint" />
          </mxGeometry>
        </mxCell>
        <mxCell id="_TdoKLdaZGUyP6bLBIqD-35" value="" style="shape=flexArrow;endArrow=classic;html=1;rounded=0;" parent="1" edge="1">
          <mxGeometry width="50" height="50" relative="1" as="geometry">
            <mxPoint x="595" y="359.5" as="sourcePoint" />
            <mxPoint x="670" y="359.5" as="targetPoint" />
          </mxGeometry>
        </mxCell>
        <mxCell id="_TdoKLdaZGUyP6bLBIqD-36" value="Raw Data" style="text;strokeColor=none;align=center;fillColor=none;html=1;verticalAlign=middle;whiteSpace=wrap;rounded=0;" parent="1" vertex="1">
          <mxGeometry x="355" y="276" width="80" height="30" as="geometry" />
        </mxCell>
        <mxCell id="_TdoKLdaZGUyP6bLBIqD-37" value="Cleaned, standard data" style="text;strokeColor=none;align=center;fillColor=none;html=1;verticalAlign=middle;whiteSpace=wrap;rounded=0;" parent="1" vertex="1">
          <mxGeometry x="520" y="280" width="80" height="30" as="geometry" />
        </mxCell>
        <mxCell id="_TdoKLdaZGUyP6bLBIqD-38" value="business ready data" style="text;strokeColor=none;align=center;fillColor=none;html=1;verticalAlign=middle;whiteSpace=wrap;rounded=0;" parent="1" vertex="1">
          <mxGeometry x="660" y="280" width="80" height="30" as="geometry" />
        </mxCell>
        <mxCell id="_TdoKLdaZGUyP6bLBIqD-39" value="Object Type: Tables&lt;div&gt;Load :&amp;nbsp;&lt;/div&gt;&lt;div&gt;&lt;ul&gt;&lt;li&gt;Batch processing&lt;/li&gt;&lt;li&gt;Full Load&lt;/li&gt;&lt;li&gt;Trucate &amp;amp; Insert&lt;/li&gt;&lt;/ul&gt;&lt;div&gt;Transformations:&lt;/div&gt;&lt;/div&gt;&lt;div&gt;&lt;ul&gt;&lt;li&gt;Data Cleansing&lt;/li&gt;&lt;li&gt;Data standardisation&lt;/li&gt;&lt;li&gt;Data normalisation&lt;/li&gt;&lt;li&gt;Derived columns&lt;/li&gt;&lt;li&gt;Data enrichment&lt;/li&gt;&lt;/ul&gt;&lt;/div&gt;&lt;div&gt;Data Model : None (as-is)&lt;/div&gt;" style="text;strokeColor=none;align=left;fillColor=none;html=1;verticalAlign=middle;whiteSpace=wrap;rounded=0;fontSize=10;" parent="1" vertex="1">
          <mxGeometry x="490" y="380" width="140" height="190" as="geometry" />
        </mxCell>
        <mxCell id="_TdoKLdaZGUyP6bLBIqD-40" value="&lt;font style=&quot;font-size: 11px;&quot;&gt;Object Type: Tables&lt;/font&gt;&lt;div&gt;&lt;font style=&quot;font-size: 11px;&quot;&gt;Load :&amp;nbsp;&lt;/font&gt;&lt;/div&gt;&lt;div&gt;&lt;ul&gt;&lt;li&gt;&lt;font style=&quot;font-size: 11px;&quot;&gt;Batch processing&lt;/font&gt;&lt;/li&gt;&lt;li&gt;&lt;font style=&quot;font-size: 11px;&quot;&gt;Full Load&lt;/font&gt;&lt;/li&gt;&lt;li&gt;&lt;font style=&quot;font-size: 11px;&quot;&gt;Trucate &amp;amp; Insert&lt;/font&gt;&lt;/li&gt;&lt;/ul&gt;&lt;div&gt;&lt;font style=&quot;font-size: 11px;&quot;&gt;No Transformations&lt;/font&gt;&lt;/div&gt;&lt;/div&gt;&lt;div&gt;&lt;font style=&quot;font-size: 11px;&quot;&gt;Data Model : None (as-is)&lt;/font&gt;&lt;/div&gt;" style="text;strokeColor=none;align=left;fillColor=none;html=1;verticalAlign=middle;whiteSpace=wrap;rounded=0;" parent="1" vertex="1">
          <mxGeometry x="329" y="380" width="141" height="150" as="geometry" />
        </mxCell>
        <mxCell id="_TdoKLdaZGUyP6bLBIqD-41" value="Object Type: Views&lt;div&gt;Load :&amp;nbsp; No Load&lt;/div&gt;&lt;div&gt;&lt;div&gt;Transformations:&lt;/div&gt;&lt;/div&gt;&lt;div&gt;&lt;ul&gt;&lt;li&gt;Data Integrations&lt;/li&gt;&lt;li&gt;Aggregations&lt;/li&gt;&lt;li&gt;Business Logics&lt;/li&gt;&lt;/ul&gt;&lt;/div&gt;&lt;div&gt;Data Model :&amp;nbsp;&lt;/div&gt;&lt;div&gt;&lt;ul&gt;&lt;li&gt;Star Schema&lt;/li&gt;&lt;li&gt;Flat Table&lt;/li&gt;&lt;li&gt;Aggregated Table&lt;/li&gt;&lt;/ul&gt;&lt;/div&gt;" style="text;strokeColor=none;align=left;fillColor=none;html=1;verticalAlign=middle;whiteSpace=wrap;rounded=0;fontSize=10;" parent="1" vertex="1">
          <mxGeometry x="650" y="365" width="120" height="215" as="geometry" />
        </mxCell>
        <mxCell id="_TdoKLdaZGUyP6bLBIqD-43" value="" style="image;aspect=fixed;html=1;points=[];align=center;fontSize=12;image=img/lib/azure2/analytics/Power_BI_Embedded.svg;" parent="1" vertex="1">
          <mxGeometry x="860" y="183.34" width="41" height="54.66" as="geometry" />
        </mxCell>
        <mxCell id="_TdoKLdaZGUyP6bLBIqD-44" value="" style="sketch=0;pointerEvents=1;shadow=0;dashed=0;html=1;strokeColor=none;fillColor=#505050;labelPosition=center;verticalLabelPosition=bottom;verticalAlign=top;outlineConnect=0;align=center;shape=mxgraph.office.servers.monitoring_sql_reporting_services;" parent="1" vertex="1">
          <mxGeometry x="910" y="194" width="33" height="44" as="geometry" />
        </mxCell>
        <mxCell id="_TdoKLdaZGUyP6bLBIqD-45" value="" style="image;aspect=fixed;perimeter=ellipsePerimeter;html=1;align=center;shadow=0;dashed=0;spacingTop=3;image=img/lib/active_directory/sql_server.svg;" parent="1" vertex="1">
          <mxGeometry x="893.3" y="310" width="38.5" height="50" as="geometry" />
        </mxCell>
        <mxCell id="_TdoKLdaZGUyP6bLBIqD-46" value="" style="points=[];aspect=fixed;html=1;align=center;shadow=0;dashed=0;fillColor=#FF6A00;strokeColor=none;shape=mxgraph.alibaba_cloud.machine_learning;" parent="1" vertex="1">
          <mxGeometry x="882" y="440" width="49.8" height="50.099999999999994" as="geometry" />
        </mxCell>
        <mxCell id="_TdoKLdaZGUyP6bLBIqD-47" value="BI &amp;amp; Reporting" style="text;strokeColor=none;align=center;fillColor=none;html=1;verticalAlign=middle;whiteSpace=wrap;rounded=0;" parent="1" vertex="1">
          <mxGeometry x="867" y="246" width="80" height="30" as="geometry" />
        </mxCell>
        <mxCell id="_TdoKLdaZGUyP6bLBIqD-48" value="Ad-Hoc SQL Queries" style="text;strokeColor=none;align=center;fillColor=none;html=1;verticalAlign=middle;whiteSpace=wrap;rounded=0;" parent="1" vertex="1">
          <mxGeometry x="867" y="364.64" width="80" height="30" as="geometry" />
        </mxCell>
        <mxCell id="_TdoKLdaZGUyP6bLBIqD-49" value="Machine Learning" style="text;strokeColor=none;align=center;fillColor=none;html=1;verticalAlign=middle;whiteSpace=wrap;rounded=0;" parent="1" vertex="1">
          <mxGeometry x="866.9" y="490.1" width="80" height="30" as="geometry" />
        </mxCell>
        <mxCell id="_TdoKLdaZGUyP6bLBIqD-50" value="" style="points=[];aspect=fixed;html=1;align=center;shadow=0;dashed=0;fillColor=#FF6A00;strokeColor=none;shape=mxgraph.alibaba_cloud.sqlserver;" parent="1" vertex="1">
          <mxGeometry x="294.82" y="85.1" width="25.18" height="34.9" as="geometry" />
        </mxCell>
        <mxCell id="_TdoKLdaZGUyP6bLBIqD-51" value="SQL Server" style="rounded=0;whiteSpace=wrap;html=1;strokeColor=none;fontSize=12;" parent="1" vertex="1">
          <mxGeometry x="320" y="95.1" width="71" height="14.9" as="geometry" />
        </mxCell>
      </root>
    </mxGraphModel>
  </diagram>
</mxfile>
